<svg xmlns="http://www.w3.org/2000/svg" width="36" height="36.037" viewBox="0 0 36 36.037">
  <g id="noun_Delete_4024839" transform="translate(-0.533 -0.529)">
    <g id="Group_70" data-name="Group 70" transform="translate(0.533 0.529)">
      <path id="Path_51" data-name="Path 51" d="M14.994.53a3.873,3.873,0,0,0-3.856,3.846H25.929A3.873,3.873,0,0,0,22.073.53ZM1.825,5.669a1.287,1.287,0,1,0,0,2.574H4.131L5.664,30.972a5.84,5.84,0,0,0,5.682,5.6H25.721a5.84,5.84,0,0,0,5.682-5.6L32.941,8.243h2.3a1.287,1.287,0,1,0,0-2.574c-12.392-.018-21.331,0-33.415,0Zm12.846,7.725a1.287,1.287,0,0,1,1.292,1.292V27.55a1.287,1.287,0,1,1-2.574,0V14.686a1.287,1.287,0,0,1,1.282-1.292Zm7.725,0a1.287,1.287,0,0,1,1.282,1.292V27.55a1.288,1.288,0,1,1-2.577,0V14.686A1.287,1.287,0,0,1,22.4,13.394Z" transform="translate(-0.533 -0.53)" fill="#fff"/>
    </g>
  </g>
</svg>
