<svg xmlns="http://www.w3.org/2000/svg" width="26.28" height="33.071" viewBox="0 0 26.28 33.071">
  <g id="Group_370" data-name="Group 370" transform="translate(-553.22 -124.964)">
    <path id="Path_175" data-name="Path 175" d="M74.49,68.864l1.45-.913a.954.954,0,0,1,1.008,0l1.45.913a.091.091,0,0,0,.14-.077V60.06H74.35v8.727a.091.091,0,0,0,.047.081A.085.085,0,0,0,74.49,68.864Z" transform="translate(482.556 69.54)" fill="#272727"/>
    <path id="Path_174" data-name="Path 174" d="M101.9,33.65H82.414a1.406,1.406,0,0,0-1.4,1.4v.2H99.467a1.23,1.23,0,0,1,1.229,1.229v25.6h1.2a.528.528,0,0,0,.527-.527V34.177A.528.528,0,0,0,101.9,33.65Z" transform="translate(477.076 91.314)" fill="#272727"/>
    <path id="Path_176" data-name="Path 176" d="M88.018,46.92H68.534a1.406,1.406,0,0,0-1.4,1.4v.2H85.587a1.23,1.23,0,0,1,1.229,1.229v25.6h1.2a.528.528,0,0,0,.527-.527V47.447A.528.528,0,0,0,88.018,46.92Z" transform="translate(488.52 80.374)" fill="#272727"/>
    <path id="Path_177" data-name="Path 177" d="M74.176,60.06h-12.3v8.727a.794.794,0,0,1-1.216.672l-1.45-.913a.244.244,0,0,0-.258,0l-1.45.913a.794.794,0,0,1-1.216-.672V60.06H54.694a1.406,1.406,0,0,0-1.4,1.4V87.091a1.406,1.406,0,0,0,1.4,1.4H74.178a.528.528,0,0,0,.527-.527V60.587A.531.531,0,0,0,74.176,60.06ZM70.314,82.022a1.841,1.841,0,0,1-1.838,1.838H59.514a1.841,1.841,0,0,1-1.838-1.838v-.186A1.841,1.841,0,0,1,59.514,80h8.962a1.841,1.841,0,0,1,1.838,1.838Z" transform="translate(499.93 69.54)" fill="#272727"/>
  </g>
</svg>
