<svg xmlns="http://www.w3.org/2000/svg" width="39" height="39" viewBox="0 0 39 39">
  <path id="Subtraction_14" data-name="Subtraction 14" d="M-9773-2454h-25a7.008,7.008,0,0,1-7-7v-25a7.009,7.009,0,0,1,7-7h25a7.008,7.008,0,0,1,7,7v25A7.006,7.006,0,0,1-9773-2454Zm-12.5-27.322c-7.269,0-12.749,2.815-12.749,6.548,0,1.669,1.127,3.237,3.175,4.414a18.546,18.546,0,0,0,8.044,2.08v1.558a1.057,1.057,0,0,0,.563.94,1.082,1.082,0,0,0,.482.106,1.04,1.04,0,0,0,.617-.187l3.92-2.817a1.044,1.044,0,0,0,.429-.859,1.074,1.074,0,0,0-.429-.859l-3.92-2.82a1,1,0,0,0-.609-.2,1.033,1.033,0,0,0-.49.125,1.049,1.049,0,0,0-.563.938v1.477a16.772,16.772,0,0,1-6.32-1.5c-1.437-.722-2.295-1.614-2.295-2.387,0-1.647,3.859-3.945,10.146-3.945a18.867,18.867,0,0,1,7.427,1.348c1.7.756,2.717,1.727,2.717,2.6,0,.918-1.172,1.956-3.059,2.709a1.29,1.29,0,0,0-.714.694,1.292,1.292,0,0,0-.01,1,1.293,1.293,0,0,0,1.2.82,1.306,1.306,0,0,0,.486-.094c3.029-1.207,4.7-3.027,4.7-5.126C-9772.751-2478.507-9778.231-2481.322-9785.5-2481.322Z" transform="translate(9805.001 2493.001)" fill="#fff"/>
</svg>
