<svg xmlns="http://www.w3.org/2000/svg" width="39" height="39" viewBox="0 0 39 39">
  <g id="noun_Scale_802679" transform="translate(-6 -6)">
    <g id="Group_338" data-name="Group 338" transform="translate(6 6)">
      <path id="Path_301" data-name="Path 301" d="M37.5,6h-24A7.508,7.508,0,0,0,6,13.5v24A7.508,7.508,0,0,0,13.5,45h24A7.508,7.508,0,0,0,45,37.5v-24A7.508,7.508,0,0,0,37.5,6ZM36,21a1.5,1.5,0,0,1-3,0v-.944L20.188,33h1.071a1.5,1.5,0,0,1,0,3H16.5A1.5,1.5,0,0,1,15,34.5V29.743a1.5,1.5,0,0,1,3,0v1.2L30.813,18H29.743a1.5,1.5,0,0,1,0-3H34.5A1.5,1.5,0,0,1,36,16.5Z" transform="translate(-6 -6)" fill="#fff"/>
    </g>
  </g>
</svg>
