<svg xmlns="http://www.w3.org/2000/svg" width="39" height="39" viewBox="0 0 39 39">
  <path id="Subtraction_13" data-name="Subtraction 13" d="M32,39H7a7.008,7.008,0,0,1-7-7V7A7.008,7.008,0,0,1,7,0H32a7.008,7.008,0,0,1,7,7V32A7.007,7.007,0,0,1,32,39Zm-8.41-12.005a1.4,1.4,0,1,0,0,2.8h4.819a1.4,1.4,0,0,0,1.4-1.4v-4.79a1.4,1.4,0,0,0-2.8,0v1.408L21.5,19.5l5.513-5.512v1.406a1.4,1.4,0,1,0,2.8,0V10.606a1.4,1.4,0,0,0-1.4-1.4H23.59a1.4,1.4,0,1,0,0,2.8h1.441l-5.513,5.513L14,12.005H15.41a1.4,1.4,0,1,0,0-2.8H10.591a1.4,1.4,0,0,0-1.4,1.4v4.789a1.4,1.4,0,1,0,2.8,0V13.953L17.537,19.5,11.99,25.047V23.605a1.4,1.4,0,1,0-2.8,0V28.4a1.4,1.4,0,0,0,1.4,1.4h4.818a1.4,1.4,0,1,0,0-2.8H14l5.515-5.515,5.514,5.514Z" fill="#fff"/>
</svg>
